<svg width="88" height="79" viewBox="0 0 88 79" fill="none" xmlns="http://www.w3.org/2000/svg">
<mask id="path-1-outside-1_11_1600" maskUnits="userSpaceOnUse" x="-0.310944" y="0" width="88" height="79" fill="black">
<rect fill="white" x="-0.310944" width="88" height="79"/>
<path d="M64.8 7.99999H72.8C76.2 7.99999 77.2 9.59999 76.6 12.6L71.4 42.2H74.8C77.8 42.2 79.2 43.8 79.2 46.6V66C79.2 69 77.8 70.4 74.8 70.4H55.2C52.2 70.4 50.8 69 50.8 66V49.2C50.8 45.8 51 44 52.2 39.8L59.4 12.6C60.4 9.2 61.8 7.99999 64.8 7.99999ZM22 7.99999H30C33.4 7.99999 34.4 9.59999 33.8 12.6L28.6 42.2H32C35 42.2 36.4 43.8 36.4 46.6V66C36.4 69 35 70.4 32 70.4H12.4C9.39999 70.4 7.99999 69 7.99999 66V49.2C7.99999 45.8 8.19999 44 9.39999 39.8L16.6 12.6C17.6 9.2 19 7.99999 22 7.99999Z"/>
</mask>
<path d="M64.8 7.99999H72.8C76.2 7.99999 77.2 9.59999 76.6 12.6L71.4 42.2H74.8C77.8 42.2 79.2 43.8 79.2 46.6V66C79.2 69 77.8 70.4 74.8 70.4H55.2C52.2 70.4 50.8 69 50.8 66V49.2C50.8 45.8 51 44 52.2 39.8L59.4 12.6C60.4 9.2 61.8 7.99999 64.8 7.99999ZM22 7.99999H30C33.4 7.99999 34.4 9.59999 33.8 12.6L28.6 42.2H32C35 42.2 36.4 43.8 36.4 46.6V66C36.4 69 35 70.4 32 70.4H12.4C9.39999 70.4 7.99999 69 7.99999 66V49.2C7.99999 45.8 8.19999 44 9.39999 39.8L16.6 12.6C17.6 9.2 19 7.99999 22 7.99999Z" fill="#F58120"/>
<path d="M76.6 12.6L68.7553 11.0311L68.7369 11.1232L68.7207 11.2158L76.6 12.6ZM71.4 42.2L63.5207 40.8158L61.8721 50.2H71.4V42.2ZM52.2 39.8L59.8922 41.9978L59.9137 41.9227L59.9336 41.8471L52.2 39.8ZM59.4 12.6L51.7251 10.3427L51.6943 10.4474L51.6664 10.5528L59.4 12.6ZM33.8 12.6L25.9553 11.0311L25.9369 11.1232L25.9207 11.2158L33.8 12.6ZM28.6 42.2L20.7207 40.8158L19.0721 50.2H28.6V42.2ZM9.39999 39.8L17.0922 41.9978L17.1136 41.9227L17.1336 41.8471L9.39999 39.8ZM16.6 12.6L8.92507 10.3427L8.89428 10.4473L8.86635 10.5528L16.6 12.6ZM64.8 7.99998V16H72.8V7.99998V-1.52588e-05H64.8V7.99998ZM72.8 7.99998V16C73.6114 16 71.5497 16.2365 69.8742 14.0724C68.299 12.0377 68.9175 10.2205 68.7553 11.0311L76.6 12.6L84.4446 14.1689C84.8825 11.9794 85.301 7.8623 82.5258 4.2776C79.6503 0.563477 75.3885 -1.52588e-05 72.8 -1.52588e-05V7.99998ZM76.6 12.6L68.7207 11.2158L63.5207 40.8158L71.4 42.2L79.2793 43.5842L84.4793 13.9842L76.6 12.6ZM71.4 42.2V50.2H74.8V42.2V34.2H71.4V42.2ZM74.8 42.2V50.2C74.9315 50.2 73.6333 50.2138 72.3731 48.9102C71.1607 47.656 71.2 46.4319 71.2 46.6H79.2H87.2C87.2 43.9681 86.5393 40.544 83.8769 37.7898C81.1667 34.9862 77.6685 34.2 74.8 34.2V42.2ZM79.2 46.6H71.2V66H79.2H87.2V46.6H79.2ZM79.2 66H71.2C71.2 66.4059 71.0959 65.0404 72.4681 63.6681C73.8404 62.2959 75.2059 62.4 74.8 62.4V70.4V78.4C77.3941 78.4 80.9596 77.8041 83.7819 74.9818C86.6041 72.1596 87.2 68.5941 87.2 66H79.2ZM74.8 70.4V62.4H55.2V70.4V78.4H74.8V70.4ZM55.2 70.4V62.4C54.7941 62.4 56.1596 62.2959 57.5318 63.6681C58.9041 65.0404 58.8 66.4059 58.8 66H50.8H42.8C42.8 68.5941 43.3959 72.1596 46.2181 74.9818C49.0404 77.8041 52.6059 78.4 55.2 78.4V70.4ZM50.8 66H58.8V49.2H50.8H42.8V66H50.8ZM50.8 49.2H58.8C58.8 46.5726 58.8882 45.5118 59.8922 41.9978L52.2 39.8L44.5078 37.6022C43.1118 42.4882 42.8 45.0274 42.8 49.2H50.8ZM52.2 39.8L59.9336 41.8471L67.1336 14.6471L59.4 12.6L51.6664 10.5528L44.4664 37.7529L52.2 39.8ZM59.4 12.6L67.0749 14.8573C67.2277 14.3378 67.3148 14.1891 67.2839 14.2463C67.2375 14.3323 67.0197 14.7038 66.5416 15.1117C66.036 15.5429 65.4946 15.7973 65.068 15.9216C64.7023 16.0281 64.5549 16 64.8 16V7.99998V-1.52588e-05C62.2639 -1.52588e-05 59.0019 0.513031 56.1584 2.93832C53.538 5.1734 52.377 8.12602 51.7251 10.3427L59.4 12.6ZM22 7.99998V16H30V7.99998V-1.52588e-05H22V7.99998ZM30 7.99998V16C30.8114 16 28.7497 16.2365 27.0742 14.0724C25.499 12.0377 26.1175 10.2205 25.9553 11.0311L33.8 12.6L41.6446 14.1689C42.0825 11.9794 42.501 7.8623 39.7258 4.2776C36.8503 0.563477 32.5885 -1.52588e-05 30 -1.52588e-05V7.99998ZM33.8 12.6L25.9207 11.2158L20.7207 40.8158L28.6 42.2L36.4793 43.5842L41.6793 13.9842L33.8 12.6ZM28.6 42.2V50.2H32V42.2V34.2H28.6V42.2ZM32 42.2V50.2C32.1315 50.2 30.8333 50.2138 29.5731 48.9102C28.3607 47.656 28.4 46.4319 28.4 46.6H36.4H44.4C44.4 43.9681 43.7393 40.544 41.0769 37.7898C38.3667 34.9862 34.8685 34.2 32 34.2V42.2ZM36.4 46.6H28.4V66H36.4H44.4V46.6H36.4ZM36.4 66H28.4C28.4 66.4059 28.2959 65.0404 29.6681 63.6681C31.0404 62.2959 32.4059 62.4 32 62.4V70.4V78.4C34.5941 78.4 38.1596 77.8041 40.9818 74.9818C43.8041 72.1596 44.4 68.5941 44.4 66H36.4ZM32 70.4V62.4H12.4V70.4V78.4H32V70.4ZM12.4 70.4V62.4C11.9941 62.4 13.3596 62.2959 14.7318 63.6681C16.1041 65.0404 16 66.4059 16 66H7.99999H-5.72205e-06C-5.72205e-06 68.5941 0.595921 72.1596 3.41814 74.9818C6.24036 77.8041 9.80591 78.4 12.4 78.4V70.4ZM7.99999 66H16V49.2H7.99999H-5.72205e-06V66H7.99999ZM7.99999 49.2H16C16 46.5726 16.0882 45.5118 17.0922 41.9978L9.39999 39.8L1.7078 37.6022C0.311802 42.4882 -5.72205e-06 45.0274 -5.72205e-06 49.2H7.99999ZM9.39999 39.8L17.1336 41.8471L24.3336 14.6471L16.6 12.6L8.86635 10.5528L1.66635 37.7529L9.39999 39.8ZM16.6 12.6L24.2749 14.8573C24.4277 14.3378 24.5148 14.1891 24.4839 14.2463C24.4375 14.3323 24.2197 14.7038 23.7416 15.1117C23.236 15.5429 22.6946 15.7973 22.268 15.9216C21.9023 16.0281 21.7549 16 22 16V7.99998V-1.52588e-05C19.4639 -1.52588e-05 16.2019 0.513031 13.3584 2.93832C10.738 5.17339 9.57702 8.12602 8.92507 10.3427L16.6 12.6Z" fill="white" mask="url(#path-1-outside-1_11_1600)"/>
</svg>
